<?xml version="1.0" standalone="no"?>
<!DOCTYPE svg PUBLIC "-//W3C//DTD SVG 20010904//EN"
 "http://www.w3.org/TR/2001/REC-SVG-20010904/DTD/svg10.dtd">
<svg version="1.0" xmlns="http://www.w3.org/2000/svg"
 width="500.000000pt" height="500.000000pt" viewBox="0 0 500.000000 500.000000"
 preserveAspectRatio="xMidYMid meet">

<g transform="translate(0.000000,500.000000) scale(0.100000,-0.100000)"
fill="#000000" stroke="none">
<path d="M0 2500 l0 -2500 2500 0 2500 0 0 2500 0 2500 -2500 0 -2500 0 0
-2500z m2819 1955 c219 -31 393 -85 596 -185 414 -203 720 -513 919 -930 129
-271 185 -528 186 -844 0 -311 -60 -582 -190 -851 -243 -504 -657 -860 -1203
-1036 -89 -29 -169 -58 -178 -66 -26 -22 -166 -33 -409 -33 -239 1 -363 11
-389 33 -9 8 -95 39 -191 71 -323 104 -549 239 -784 466 -468 453 -682 1100
-575 1740 138 823 769 1467 1587 1620 142 26 150 27 352 28 108 1 214 -4 279
-13z"/>
<path d="M2350 4220 c-398 -55 -721 -208 -994 -470 -262 -251 -429 -554 -506
-916 -27 -128 -38 -401 -21 -540 89 -731 631 -1330 1346 -1488 108 -24 122
-25 252 -36 371 -30 768 76 1085 289 827 557 1016 1690 415 2485 -264 348
-645 580 -1084 661 -103 19 -398 28 -493 15z m-483 -1544 c88 -49 132 -141
119 -248 -19 -147 -125 -218 -328 -218 l-88 0 0 -145 0 -145 -80 0 -80 0 0
396 0 395 203 -3 c201 -3 202 -3 254 -32z m1049 -356 c74 -212 134 -389 134
-393 0 -4 -37 -7 -82 -5 l-81 3 -30 88 -29 88 -151 -3 -150 -3 -30 -87 -29
-88 -79 0 c-43 0 -79 3 -79 6 0 6 239 702 261 762 8 22 12 23 110 20 l102 -3
133 -385z m664 -5 l0 -395 -75 0 -75 0 0 395 0 395 75 0 75 0 0 -395z"/>
<path d="M1578 2584 c-5 -4 -8 -61 -8 -126 l0 -118 84 0 c102 0 130 9 156 52
36 60 17 153 -37 177 -32 15 -185 27 -195 15z"/>
<path d="M2624 2398 c-26 -79 -49 -149 -52 -155 -3 -10 21 -13 102 -13 58 0
106 3 106 7 0 20 -94 303 -101 303 -4 0 -29 -64 -55 -142z"/>
</g>
</svg>
