<svg xmlns="http://www.w3.org/2000/svg" width="666.667" height="666.667" version="1.0" viewBox="0 0 500 500"><path d="M0 250v250h500V0H0zM281.9 54.5c21.9 3.1 39.3 8.5 59.6 18.5 41.4 20.3 72 51.3 91.9 93 12.9 27.1 18.5 52.8 18.6 84.4 0 31.1-6 58.2-19 85.1-24.3 50.4-65.7 86-120.3 103.6-8.9 2.9-16.9 5.8-17.8 6.6-2.6 2.2-16.6 3.3-40.9 3.3-23.9-.1-36.3-1.1-38.9-3.3-.9-.8-9.5-3.9-19.1-7.1-32.3-10.4-54.9-23.9-78.4-46.6-46.8-45.3-68.2-110-57.5-174C73.9 135.7 137 71.3 218.8 56c14.2-2.6 15-2.7 35.2-2.8 10.8-.1 21.4.4 27.9 1.3"/><path d="M235 78c-39.8 5.5-72.1 20.8-99.4 47-26.2 25.1-42.9 55.4-50.6 91.6-2.7 12.8-3.8 40.1-2.1 54 8.9 73.1 63.1 133 134.6 148.8 10.8 2.4 12.2 2.5 25.2 3.6 37.1 3 76.8-7.6 108.5-28.9 82.7-55.7 101.6-169 41.5-248.5-26.4-34.8-64.5-58-108.4-66.1-10.3-1.9-39.8-2.8-49.3-1.5m-48.3 154.4c8.8 4.9 13.2 14.1 11.9 24.8-1.9 14.7-12.5 21.8-32.8 21.8H157v29h-16v-79.1l20.3.3c20.1.3 20.2.3 25.4 3.2M291.6 268c7.4 21.2 13.4 38.9 13.4 39.3s-3.7.7-8.2.5l-8.1-.3-3-8.8-2.9-8.8-15.1.3-15 .3-3 8.7-2.9 8.8h-7.9c-4.3 0-7.9-.3-7.9-.6 0-.6 23.9-70.2 26.1-76.2.8-2.2 1.2-2.3 11-2l10.2.3zm66.4.5V308h-15v-79h15z"/><path d="M157.8 241.6c-.5.4-.8 6.1-.8 12.6V266h8.4c10.2 0 13-.9 15.6-5.2 3.6-6 1.7-15.3-3.7-17.7-3.2-1.5-18.5-2.7-19.5-1.5M262.4 260.2c-2.6 7.9-4.9 14.9-5.2 15.5-.3 1 2.1 1.3 10.2 1.3 5.8 0 10.6-.3 10.6-.7 0-2-9.4-30.3-10.1-30.3-.4 0-2.9 6.4-5.5 14.2"/></svg>